<svg xmlns="http://www.w3.org/2000/svg" viewBox="0 0 168 168" width="168" height="168" class="kolam" data-agent="kalam" data-label="Kalam" data-now="reading the logs" data-done="3" data-total="6" role="img">
  <title>Kalam: 3 of 6 done</title>
  <style>#kolam-kalam .line{fill:none;stroke:#1d1c1a;stroke-width:2;stroke-linecap:round}#kolam-kalam .line.is-broken{stroke:#a8322a}#kolam-kalam .pulli{stroke-width:1.4}#kolam-kalam .is-open{fill:#d8d4cc;stroke:none}#kolam-kalam .is-queued{fill:none;stroke:#8b877f}#kolam-kalam .is-built{fill:#1d1c1a;stroke:none}#kolam-kalam .is-blocked{fill:#a8322a;stroke:none}#kolam-kalam .is-building{fill:#8b877f;stroke:#8b877f;animation:kolam-pulse 1.6s ease-in-out infinite}#kolam-kalam .pulli[tabindex]{cursor:pointer}#kolam-kalam .pulli[tabindex]:hover,#kolam-kalam .pulli[tabindex]:focus{stroke:#a8322a;stroke-width:2.8;outline:none}@keyframes kolam-pulse{0%,100%{opacity:.35}50%{opacity:1}}@media (prefers-reduced-motion:reduce){#kolam-kalam .is-building{animation:none;opacity:.7}}</style>
  <g id="kolam-kalam">
    <circle class="pulli is-open" cx="34" cy="34" r="1.6"><title>Open ground: no task on this dot.</title></circle>
    <circle class="pulli is-open" cx="54" cy="34" r="1.6"><title>Open ground: no task on this dot.</title></circle>
    <circle class="pulli is-open" cx="74" cy="34" r="1.6"><title>Open ground: no task on this dot.</title></circle>
    <circle class="pulli is-open" cx="94" cy="34" r="1.6"><title>Open ground: no task on this dot.</title></circle>
    <circle class="pulli is-open" cx="114" cy="34" r="1.6"><title>Open ground: no task on this dot.</title></circle>
    <circle class="pulli is-open" cx="134" cy="34" r="1.6"><title>Open ground: no task on this dot.</title></circle>
    <circle class="pulli is-open" cx="34" cy="54" r="1.6"><title>Open ground: no task on this dot.</title></circle>
    <circle class="pulli is-open" cx="54" cy="54" r="1.6"><title>Open ground: no task on this dot.</title></circle>
    <circle class="pulli is-built" cx="74" cy="54" r="3.4" tabindex="0" role="link" data-proposal="59" data-aao="2" data-state="built" data-title="A swarm dashboard: what was adopted, what is done, and what each agent is doing now" data-at="1789800793994" data-who="" data-what=""><title>Proposal 59: A swarm dashboard: what was adopted, what is done, and what each agent is doing now — built</title></circle>
    <circle class="pulli is-open" cx="94" cy="54" r="1.6"><title>Open ground: no task on this dot.</title></circle>
    <circle class="pulli is-open" cx="114" cy="54" r="1.6"><title>Open ground: no task on this dot.</title></circle>
    <circle class="pulli is-open" cx="134" cy="54" r="1.6"><title>Open ground: no task on this dot.</title></circle>
    <circle class="pulli is-open" cx="34" cy="74" r="1.6"><title>Open ground: no task on this dot.</title></circle>
    <circle class="pulli is-built" cx="54" cy="74" r="3.4" tabindex="0" role="link" data-proposal="57" data-aao="2" data-state="built" data-title="Execute is not offered on a proposal nobody has voted on" data-at="1789799727217" data-who="" data-what=""><title>Proposal 57: Execute is not offered on a proposal nobody has voted on — built</title></circle>
    <circle class="pulli is-queued" cx="74" cy="74" r="3.4" tabindex="0" role="link" data-proposal="50" data-aao="2" data-state="queued" data-title="Move the chain and the governance page to the cloud first" data-at="1789734971873" data-who="" data-what=""><title>Proposal 50: Move the chain and the governance page to the cloud first — queued</title></circle>
    <circle class="pulli is-queued" cx="94" cy="74" r="3.4" tabindex="0" role="link" data-proposal="51" data-aao="2" data-state="queued" data-title="Builders work in a sub-organisation of JD, never on JD itself" data-at="1789735937633" data-who="" data-what=""><title>Proposal 51: Builders work in a sub-organisation of JD, never on JD itself — queued</title></circle>
    <circle class="pulli is-open" cx="114" cy="74" r="1.6"><title>Open ground: no task on this dot.</title></circle>
    <circle class="pulli is-open" cx="134" cy="74" r="1.6"><title>Open ground: no task on this dot.</title></circle>
    <circle class="pulli is-open" cx="34" cy="94" r="1.6"><title>Open ground: no task on this dot.</title></circle>
    <circle class="pulli is-open" cx="54" cy="94" r="1.6"><title>Open ground: no task on this dot.</title></circle>
    <circle class="pulli is-built" cx="74" cy="94" r="3.4" tabindex="0" role="link" data-proposal="58" data-aao="2" data-state="built" data-title="The Director's vote executes the proposal, as the rule already says" data-at="1789799577247" data-who="" data-what=""><title>Proposal 58: The Director's vote executes the proposal, as the rule already says — built</title></circle>
    <circle class="pulli is-queued" cx="94" cy="94" r="3.4" tabindex="0" role="link" data-proposal="52" data-aao="2" data-state="queued" data-title="The explorer nests a sub-organisation under its parent" data-at="1789736028401" data-who="" data-what=""><title>Proposal 52: The explorer nests a sub-organisation under its parent — queued</title></circle>
    <circle class="pulli is-open" cx="114" cy="94" r="1.6"><title>Open ground: no task on this dot.</title></circle>
    <circle class="pulli is-open" cx="134" cy="94" r="1.6"><title>Open ground: no task on this dot.</title></circle>
    <circle class="pulli is-open" cx="34" cy="114" r="1.6"><title>Open ground: no task on this dot.</title></circle>
    <circle class="pulli is-open" cx="54" cy="114" r="1.6"><title>Open ground: no task on this dot.</title></circle>
    <circle class="pulli is-open" cx="74" cy="114" r="1.6"><title>Open ground: no task on this dot.</title></circle>
    <circle class="pulli is-open" cx="94" cy="114" r="1.6"><title>Open ground: no task on this dot.</title></circle>
    <circle class="pulli is-open" cx="114" cy="114" r="1.6"><title>Open ground: no task on this dot.</title></circle>
    <circle class="pulli is-open" cx="134" cy="114" r="1.6"><title>Open ground: no task on this dot.</title></circle>
    <circle class="pulli is-open" cx="34" cy="134" r="1.6"><title>Open ground: no task on this dot.</title></circle>
    <circle class="pulli is-open" cx="54" cy="134" r="1.6"><title>Open ground: no task on this dot.</title></circle>
    <circle class="pulli is-open" cx="74" cy="134" r="1.6"><title>Open ground: no task on this dot.</title></circle>
    <circle class="pulli is-open" cx="94" cy="134" r="1.6"><title>Open ground: no task on this dot.</title></circle>
    <circle class="pulli is-open" cx="114" cy="134" r="1.6"><title>Open ground: no task on this dot.</title></circle>
    <circle class="pulli is-open" cx="134" cy="134" r="1.6"><title>Open ground: no task on this dot.</title></circle>
    <path class="line" d="M 24 14 A 10 10 0 0 1 14 24 A 10 10 0 0 0 14 44 A 10 10 0 0 1 24 54 A 10 10 0 0 1 14 64 A 10 10 0 0 0 14 84 A 10 10 0 0 0 24 74 A 10 10 0 0 1 34 64 A 10 10 0 0 1 44 74 A 10 10 0 0 1 34 84 A 10 10 0 0 0 24 94 A 10 10 0 0 1 14 104 A 10 10 0 0 0 14 124 A 10 10 0 0 1 24 134 A 10 10 0 0 1 14 144 A 10 10 0 1 0 24 154 A 10 10 0 0 1 34 144 A 10 10 0 0 1 44 154 A 10 10 0 0 0 64 154 A 10 10 0 0 0 54 144 A 10 10 0 0 1 44 134 A 10 10 0 0 0 34 124 A 10 10 0 0 1 24 114 A 10 10 0 0 1 34 104 A 10 10 0 0 0 44 94 A 10 10 0 0 1 54 84 A 10 10 0 0 1 64 94 A 10 10 0 0 1 54 104 A 10 10 0 0 0 44 114 A 10 10 0 0 0 54 124 A 10 10 0 0 1 64 134 A 10 10 0 0 0 74 144 A 10 10 0 0 1 84 154 A 10 10 0 0 0 104 154 A 10 10 0 0 0 94 144 A 10 10 0 0 1 84 134 A 10 10 0 0 0 74 124 A 10 10 0 0 1 64 114 A 10 10 0 0 1 74 104 A 10 10 0 0 1 84 114 A 10 10 0 0 0 94 124 A 10 10 0 0 0 104 114 A 10 10 0 0 0 94 104 A 10 10 0 0 1 84 94 A 10 10 0 0 1 94 84 A 10 10 0 0 1 104 94 A 10 10 0 0 0 114 104 A 10 10 0 0 1 124 114 A 10 10 0 0 0 134 124 A 10 10 0 0 1 144 134 A 10 10 0 0 1 134 144 A 10 10 0 0 1 124 134 A 10 10 0 0 0 114 124 A 10 10 0 0 0 104 134 A 10 10 0 0 0 114 144 A 10 10 0 0 1 124 154 A 10 10 0 0 0 144 154 A 10 10 0 0 1 154 144 A 10 10 0 0 0 154 124 A 10 10 0 0 1 144 114 A 10 10 0 0 1 154 104 A 10 10 0 0 0 154 84 A 10 10 0 0 0 144 94 A 10 10 0 0 1 134 104 A 10 10 0 0 1 124 94 A 10 10 0 0 1 134 84 A 10 10 0 0 0 144 74 A 10 10 0 0 1 154 64 A 10 10 0 0 0 154 44 A 10 10 0 0 1 144 34 A 10 10 0 0 1 154 24 A 10 10 0 1 0 144 14 A 10 10 0 0 1 134 24 A 10 10 0 0 1 124 14 A 10 10 0 0 0 104 14 A 10 10 0 0 0 114 24 A 10 10 0 0 1 124 34 A 10 10 0 0 0 134 44 A 10 10 0 0 1 144 54 A 10 10 0 0 1 134 64 A 10 10 0 0 0 124 74 A 10 10 0 0 1 114 84 A 10 10 0 0 1 104 74 A 10 10 0 0 1 114 64 A 10 10 0 0 0 124 54 A 10 10 0 0 0 114 44 A 10 10 0 0 1 104 34 A 10 10 0 0 0 94 24 A 10 10 0 0 1 84 14 A 10 10 0 0 0 64 14 A 10 10 0 0 0 74 24 A 10 10 0 0 1 84 34 A 10 10 0 0 0 94 44 A 10 10 0 0 1 104 54 A 10 10 0 0 1 94 64 A 10 10 0 0 1 84 54 A 10 10 0 0 0 74 44 A 10 10 0 0 0 64 54 A 10 10 0 0 0 74 64 A 10 10 0 0 1 84 74 A 10 10 0 0 1 74 84 A 10 10 0 0 1 64 74 A 10 10 0 0 0 54 64 A 10 10 0 0 1 44 54 A 10 10 0 0 0 34 44 A 10 10 0 0 1 24 34 A 10 10 0 0 1 34 24 A 10 10 0 0 1 44 34 A 10 10 0 0 0 54 44 A 10 10 0 0 0 64 34 A 10 10 0 0 0 54 24 A 10 10 0 0 1 44 14 A 10 10 0 0 0 24 14 Z" stroke-dasharray="2010.62" stroke-dashoffset="1005.31"/>
  </g>
</svg>
