<svg xmlns="http://www.w3.org/2000/svg" viewBox="0 0 168 168" width="168" height="168" role="img">
  <title>idle kolam for 0x70997970C51812dc3A010C7d01b50e0d17dc79C8</title>
  <rect width="168" height="168" fill="none"/>
  <circle cx="34" cy="34" r="1.7" fill="#8b877f"/>
  <circle cx="54" cy="34" r="1.7" fill="#8b877f"/>
  <circle cx="74" cy="34" r="1.7" fill="#8b877f"/>
  <circle cx="94" cy="34" r="1.7" fill="#8b877f"/>
  <circle cx="114" cy="34" r="1.7" fill="#8b877f"/>
  <circle cx="134" cy="34" r="1.7" fill="#8b877f"/>
  <circle cx="34" cy="54" r="1.7" fill="#8b877f"/>
  <circle cx="54" cy="54" r="1.7" fill="#8b877f"/>
  <circle cx="74" cy="54" r="1.7" fill="#8b877f"/>
  <circle cx="94" cy="54" r="1.7" fill="#8b877f"/>
  <circle cx="114" cy="54" r="1.7" fill="#8b877f"/>
  <circle cx="134" cy="54" r="1.7" fill="#8b877f"/>
  <circle cx="34" cy="74" r="1.7" fill="#8b877f"/>
  <circle cx="54" cy="74" r="1.7" fill="#8b877f"/>
  <circle cx="74" cy="74" r="1.7" fill="#8b877f"/>
  <circle cx="94" cy="74" r="1.7" fill="#8b877f"/>
  <circle cx="114" cy="74" r="1.7" fill="#8b877f"/>
  <circle cx="134" cy="74" r="1.7" fill="#8b877f"/>
  <circle cx="34" cy="94" r="1.7" fill="#8b877f"/>
  <circle cx="54" cy="94" r="1.7" fill="#8b877f"/>
  <circle cx="74" cy="94" r="1.7" fill="#8b877f"/>
  <circle cx="94" cy="94" r="1.7" fill="#8b877f"/>
  <circle cx="114" cy="94" r="1.7" fill="#8b877f"/>
  <circle cx="134" cy="94" r="1.7" fill="#8b877f"/>
  <circle cx="34" cy="114" r="1.7" fill="#8b877f"/>
  <circle cx="54" cy="114" r="1.7" fill="#8b877f"/>
  <circle cx="74" cy="114" r="1.7" fill="#8b877f"/>
  <circle cx="94" cy="114" r="1.7" fill="#8b877f"/>
  <circle cx="114" cy="114" r="1.7" fill="#8b877f"/>
  <circle cx="134" cy="114" r="1.7" fill="#8b877f"/>
  <circle cx="34" cy="134" r="1.7" fill="#8b877f"/>
  <circle cx="54" cy="134" r="1.7" fill="#8b877f"/>
  <circle cx="74" cy="134" r="1.7" fill="#8b877f"/>
  <circle cx="94" cy="134" r="1.7" fill="#8b877f"/>
  <circle cx="114" cy="134" r="1.7" fill="#8b877f"/>
  <circle cx="134" cy="134" r="1.7" fill="#8b877f"/>
  <path d="M 24 14 A 10 10 0 0 0 34 24 A 10 10 0 0 1 44 34 A 10 10 0 0 0 54 44 A 10 10 0 0 1 64 54 A 10 10 0 0 0 74 64 A 10 10 0 0 1 84 74 A 10 10 0 0 1 74 84 A 10 10 0 0 1 64 74 A 10 10 0 0 0 54 64 A 10 10 0 0 1 44 54 A 10 10 0 0 0 34 44 A 10 10 0 0 1 24 34 A 10 10 0 0 0 14 24 A 10 10 0 0 0 14 44 A 10 10 0 0 1 24 54 A 10 10 0 0 1 14 64 A 10 10 0 0 0 14 84 A 10 10 0 0 0 24 74 A 10 10 0 0 1 34 64 A 10 10 0 0 1 44 74 A 10 10 0 0 0 54 84 A 10 10 0 0 1 64 94 A 10 10 0 0 0 74 104 A 10 10 0 0 1 84 114 A 10 10 0 0 0 94 124 A 10 10 0 0 1 104 134 A 10 10 0 0 1 94 144 A 10 10 0 0 1 84 134 A 10 10 0 0 0 74 124 A 10 10 0 0 0 64 134 A 10 10 0 0 1 54 144 A 10 10 0 0 1 44 134 A 10 10 0 0 1 54 124 A 10 10 0 0 0 64 114 A 10 10 0 0 0 54 104 A 10 10 0 0 0 44 114 A 10 10 0 0 1 34 124 A 10 10 0 0 1 24 114 A 10 10 0 0 1 34 104 A 10 10 0 0 0 44 94 A 10 10 0 0 0 34 84 A 10 10 0 0 0 24 94 A 10 10 0 0 1 14 104 A 10 10 0 0 0 14 124 A 10 10 0 0 1 24 134 A 10 10 0 0 1 14 144 A 10 10 0 1 0 24 154 A 10 10 0 0 1 34 144 A 10 10 0 0 1 44 154 A 10 10 0 0 0 64 154 A 10 10 0 0 1 74 144 A 10 10 0 0 1 84 154 A 10 10 0 0 0 104 154 A 10 10 0 0 1 114 144 A 10 10 0 0 1 124 154 A 10 10 0 0 0 144 154 A 10 10 0 0 0 134 144 A 10 10 0 0 1 124 134 A 10 10 0 0 0 114 124 A 10 10 0 0 1 104 114 A 10 10 0 0 0 94 104 A 10 10 0 0 1 84 94 A 10 10 0 0 1 94 84 A 10 10 0 0 1 104 94 A 10 10 0 0 0 114 104 A 10 10 0 0 1 124 114 A 10 10 0 0 0 134 124 A 10 10 0 0 1 144 134 A 10 10 0 0 0 154 144 A 10 10 0 0 0 154 124 A 10 10 0 0 1 144 114 A 10 10 0 0 1 154 104 A 10 10 0 0 0 154 84 A 10 10 0 0 0 144 94 A 10 10 0 0 1 134 104 A 10 10 0 0 1 124 94 A 10 10 0 0 0 114 84 A 10 10 0 0 1 104 74 A 10 10 0 0 0 94 64 A 10 10 0 0 1 84 54 A 10 10 0 0 0 74 44 A 10 10 0 0 1 64 34 A 10 10 0 0 1 74 24 A 10 10 0 0 1 84 34 A 10 10 0 0 0 94 44 A 10 10 0 0 0 104 34 A 10 10 0 0 1 114 24 A 10 10 0 0 1 124 34 A 10 10 0 0 1 114 44 A 10 10 0 0 0 104 54 A 10 10 0 0 0 114 64 A 10 10 0 0 0 124 54 A 10 10 0 0 1 134 44 A 10 10 0 0 1 144 54 A 10 10 0 0 1 134 64 A 10 10 0 0 0 124 74 A 10 10 0 0 0 134 84 A 10 10 0 0 0 144 74 A 10 10 0 0 1 154 64 A 10 10 0 0 0 154 44 A 10 10 0 0 1 144 34 A 10 10 0 0 1 154 24 A 10 10 0 1 0 144 14 A 10 10 0 0 1 134 24 A 10 10 0 0 1 124 14 A 10 10 0 0 0 104 14 A 10 10 0 0 1 94 24 A 10 10 0 0 1 84 14 A 10 10 0 0 0 64 14 A 10 10 0 0 1 54 24 A 10 10 0 0 1 44 14 A 10 10 0 0 0 24 14 Z" fill="none" stroke="#1d1c1a" stroke-width="2" stroke-linecap="round"/>
</svg>
